<mxfile host="app.diagrams.net" modified="2022-05-22T19:18:15.839Z" agent="5.0 (Windows NT 10.0; Win64; x64) AppleWebKit/537.36 (KHTML, like Gecko) Chrome/101.0.4951.67 Safari/537.36" etag="9REz7j5dySQsj3fy8Je9" version="18.1.1" type="github">
  <diagram id="D0PdzbdS5ywPubtTMObV" name="Page-1">
    <mxGraphModel dx="2905" dy="2885" grid="0" gridSize="10" guides="1" tooltips="1" connect="1" arrows="1" fold="1" page="0" pageScale="1" pageWidth="827" pageHeight="1169" math="0" shadow="0">
      <root>
        <mxCell id="0" />
        <mxCell id="1" parent="0" />
        <mxCell id="44_cvx2aGd4Uje0POpSN-17" value="" style="whiteSpace=wrap;html=1;aspect=fixed;fontSize=12;" vertex="1" parent="1">
          <mxGeometry x="-49" y="-812" width="1110" height="1110" as="geometry" />
        </mxCell>
        <mxCell id="44_cvx2aGd4Uje0POpSN-11" value="Müşteri" style="shape=umlActor;html=1;verticalLabelPosition=bottom;verticalAlign=top;align=center;fontSize=12;" vertex="1" parent="1">
          <mxGeometry x="-325" y="-260" width="30" height="60" as="geometry" />
        </mxCell>
        <mxCell id="44_cvx2aGd4Uje0POpSN-12" value="Kredi Çek" style="ellipse;whiteSpace=wrap;html=1;fontSize=12;" vertex="1" parent="1">
          <mxGeometry x="250.25" y="-540" width="140" height="70" as="geometry" />
        </mxCell>
        <mxCell id="44_cvx2aGd4Uje0POpSN-13" value="&amp;lt;&amp;lt;extend&amp;gt;&amp;gt;" style="edgeStyle=none;html=1;startArrow=open;endArrow=none;startSize=12;verticalAlign=bottom;dashed=1;labelBackgroundColor=none;rounded=0;fontSize=12;entryX=0;entryY=1;entryDx=0;entryDy=0;exitX=0.5;exitY=0;exitDx=0;exitDy=0;" edge="1" parent="1" source="44_cvx2aGd4Uje0POpSN-25" target="44_cvx2aGd4Uje0POpSN-12">
          <mxGeometry width="160" relative="1" as="geometry">
            <mxPoint x="107.25" y="-468" as="sourcePoint" />
            <mxPoint x="267.25" y="-468" as="targetPoint" />
          </mxGeometry>
        </mxCell>
        <mxCell id="44_cvx2aGd4Uje0POpSN-14" value="&amp;lt;&amp;lt;include&amp;gt;&amp;gt;" style="edgeStyle=none;html=1;endArrow=open;verticalAlign=bottom;dashed=1;labelBackgroundColor=none;rounded=0;fontSize=7;exitX=1;exitY=0.5;exitDx=0;exitDy=0;entryX=0;entryY=0.5;entryDx=0;entryDy=0;" edge="1" parent="1" source="44_cvx2aGd4Uje0POpSN-35" target="44_cvx2aGd4Uje0POpSN-58">
          <mxGeometry width="160" relative="1" as="geometry">
            <mxPoint x="537.75" y="-910" as="sourcePoint" />
            <mxPoint x="697.75" y="-910" as="targetPoint" />
          </mxGeometry>
        </mxCell>
        <mxCell id="44_cvx2aGd4Uje0POpSN-18" value="Banka Uygulaması" style="text;html=1;align=center;verticalAlign=middle;resizable=0;points=[];autosize=1;fontSize=12;" vertex="1" parent="1">
          <mxGeometry x="450.5" y="-805" width="111" height="18" as="geometry" />
        </mxCell>
        <mxCell id="44_cvx2aGd4Uje0POpSN-25" value="İhtiyaç Kredisi" style="ellipse;whiteSpace=wrap;html=1;fontSize=12;" vertex="1" parent="1">
          <mxGeometry x="71.25" y="-432" width="140" height="70" as="geometry" />
        </mxCell>
        <mxCell id="44_cvx2aGd4Uje0POpSN-26" value="Konut Kredisi" style="ellipse;whiteSpace=wrap;html=1;fontSize=12;" vertex="1" parent="1">
          <mxGeometry x="250.25" y="-432" width="140" height="70" as="geometry" />
        </mxCell>
        <mxCell id="44_cvx2aGd4Uje0POpSN-27" value="Araba Kredisi" style="ellipse;whiteSpace=wrap;html=1;fontSize=12;" vertex="1" parent="1">
          <mxGeometry x="435.25" y="-432" width="140" height="70" as="geometry" />
        </mxCell>
        <mxCell id="44_cvx2aGd4Uje0POpSN-29" value="" style="endArrow=none;html=1;rounded=0;fontSize=12;exitX=1;exitY=0.3333333333333333;exitDx=0;exitDy=0;exitPerimeter=0;entryX=0;entryY=0.5;entryDx=0;entryDy=0;" edge="1" parent="1" source="44_cvx2aGd4Uje0POpSN-11" target="44_cvx2aGd4Uje0POpSN-12">
          <mxGeometry width="50" height="50" relative="1" as="geometry">
            <mxPoint x="256" y="-516" as="sourcePoint" />
            <mxPoint x="306" y="-566" as="targetPoint" />
          </mxGeometry>
        </mxCell>
        <mxCell id="44_cvx2aGd4Uje0POpSN-33" value="&amp;lt;&amp;lt;extend&amp;gt;&amp;gt;" style="edgeStyle=none;html=1;startArrow=open;endArrow=none;startSize=12;verticalAlign=bottom;dashed=1;labelBackgroundColor=none;rounded=0;fontSize=12;entryX=0.5;entryY=1;entryDx=0;entryDy=0;exitX=0.5;exitY=0;exitDx=0;exitDy=0;" edge="1" parent="1" source="44_cvx2aGd4Uje0POpSN-26" target="44_cvx2aGd4Uje0POpSN-12">
          <mxGeometry width="160" relative="1" as="geometry">
            <mxPoint x="151.25" y="-422" as="sourcePoint" />
            <mxPoint x="247.3312932590552" y="-498.46368651716284" as="targetPoint" />
          </mxGeometry>
        </mxCell>
        <mxCell id="44_cvx2aGd4Uje0POpSN-34" value="&amp;lt;&amp;lt;extend&amp;gt;&amp;gt;" style="edgeStyle=none;html=1;startArrow=open;endArrow=none;startSize=12;verticalAlign=bottom;dashed=1;labelBackgroundColor=none;rounded=0;fontSize=12;entryX=1;entryY=1;entryDx=0;entryDy=0;exitX=0.5;exitY=0;exitDx=0;exitDy=0;" edge="1" parent="1" source="44_cvx2aGd4Uje0POpSN-27" target="44_cvx2aGd4Uje0POpSN-12">
          <mxGeometry width="160" relative="1" as="geometry">
            <mxPoint x="423.25" y="-448.5" as="sourcePoint" />
            <mxPoint x="390.25" y="-514.5" as="targetPoint" />
          </mxGeometry>
        </mxCell>
        <mxCell id="44_cvx2aGd4Uje0POpSN-35" value="Para Çekme" style="ellipse;whiteSpace=wrap;html=1;fontSize=12;" vertex="1" parent="1">
          <mxGeometry x="250.25" y="-756" width="140" height="70" as="geometry" />
        </mxCell>
        <mxCell id="44_cvx2aGd4Uje0POpSN-36" value="Para Yatırma" style="ellipse;whiteSpace=wrap;html=1;fontSize=12;" vertex="1" parent="1">
          <mxGeometry x="250.25" y="-648" width="140" height="70" as="geometry" />
        </mxCell>
        <mxCell id="44_cvx2aGd4Uje0POpSN-38" value="Banka Yöneticisi" style="shape=umlActor;html=1;verticalLabelPosition=bottom;verticalAlign=top;align=center;fontSize=12;" vertex="1" parent="1">
          <mxGeometry x="1257" y="-326" width="30" height="60" as="geometry" />
        </mxCell>
        <mxCell id="44_cvx2aGd4Uje0POpSN-39" value="Hesap Bakiyesini Görüntüle" style="ellipse;whiteSpace=wrap;html=1;fontSize=12;" vertex="1" parent="1">
          <mxGeometry x="250.25" y="-331" width="140" height="70" as="geometry" />
        </mxCell>
        <mxCell id="44_cvx2aGd4Uje0POpSN-40" value="Döviz Al / Sat" style="ellipse;whiteSpace=wrap;html=1;fontSize=12;" vertex="1" parent="1">
          <mxGeometry x="250.25" y="-223" width="140" height="70" as="geometry" />
        </mxCell>
        <mxCell id="44_cvx2aGd4Uje0POpSN-43" value="&amp;lt;&amp;lt;extend&amp;gt;&amp;gt;" style="edgeStyle=none;html=1;startArrow=open;endArrow=none;startSize=12;verticalAlign=bottom;dashed=1;labelBackgroundColor=none;rounded=0;fontSize=12;entryX=0;entryY=1;entryDx=0;entryDy=0;exitX=0.5;exitY=0;exitDx=0;exitDy=0;" edge="1" parent="1" source="44_cvx2aGd4Uje0POpSN-44" target="44_cvx2aGd4Uje0POpSN-40">
          <mxGeometry width="160" relative="1" as="geometry">
            <mxPoint x="111.75" y="-135.54000000000002" as="sourcePoint" />
            <mxPoint x="274.8312932590595" y="-148.0036865171649" as="targetPoint" />
          </mxGeometry>
        </mxCell>
        <mxCell id="44_cvx2aGd4Uje0POpSN-44" value="USD Al / Sat" style="ellipse;whiteSpace=wrap;html=1;fontSize=12;" vertex="1" parent="1">
          <mxGeometry x="75.75" y="-99.54000000000002" width="140" height="70" as="geometry" />
        </mxCell>
        <mxCell id="44_cvx2aGd4Uje0POpSN-45" value="EURO Al / Sat" style="ellipse;whiteSpace=wrap;html=1;fontSize=12;" vertex="1" parent="1">
          <mxGeometry x="254.75" y="-99.54000000000002" width="140" height="70" as="geometry" />
        </mxCell>
        <mxCell id="44_cvx2aGd4Uje0POpSN-46" value="POUND Al / Sat" style="ellipse;whiteSpace=wrap;html=1;fontSize=12;" vertex="1" parent="1">
          <mxGeometry x="439.75" y="-99.54000000000002" width="140" height="70" as="geometry" />
        </mxCell>
        <mxCell id="44_cvx2aGd4Uje0POpSN-47" value="&amp;lt;&amp;lt;extend&amp;gt;&amp;gt;" style="edgeStyle=none;html=1;startArrow=open;endArrow=none;startSize=12;verticalAlign=bottom;dashed=1;labelBackgroundColor=none;rounded=0;fontSize=12;entryX=0.5;entryY=1;entryDx=0;entryDy=0;exitX=0.5;exitY=0;exitDx=0;exitDy=0;" edge="1" parent="1" source="44_cvx2aGd4Uje0POpSN-45" target="44_cvx2aGd4Uje0POpSN-40">
          <mxGeometry width="160" relative="1" as="geometry">
            <mxPoint x="155.75" y="-89.54000000000002" as="sourcePoint" />
            <mxPoint x="324.75" y="-137.54000000000025" as="targetPoint" />
          </mxGeometry>
        </mxCell>
        <mxCell id="44_cvx2aGd4Uje0POpSN-48" value="&amp;lt;&amp;lt;extend&amp;gt;&amp;gt;" style="edgeStyle=none;html=1;startArrow=open;endArrow=none;startSize=12;verticalAlign=bottom;dashed=1;labelBackgroundColor=none;rounded=0;fontSize=12;entryX=1;entryY=1;entryDx=0;entryDy=0;exitX=0.5;exitY=0;exitDx=0;exitDy=0;" edge="1" parent="1" source="44_cvx2aGd4Uje0POpSN-46" target="44_cvx2aGd4Uje0POpSN-40">
          <mxGeometry width="160" relative="1" as="geometry">
            <mxPoint x="427.75" y="-116.04000000000002" as="sourcePoint" />
            <mxPoint x="374.6687067409405" y="-148.0036865171649" as="targetPoint" />
          </mxGeometry>
        </mxCell>
        <mxCell id="44_cvx2aGd4Uje0POpSN-49" value="" style="endArrow=none;html=1;rounded=0;fontSize=12;exitX=1;exitY=0.3333333333333333;exitDx=0;exitDy=0;exitPerimeter=0;entryX=0;entryY=0.5;entryDx=0;entryDy=0;" edge="1" parent="1" source="44_cvx2aGd4Uje0POpSN-11" target="44_cvx2aGd4Uje0POpSN-35">
          <mxGeometry width="50" height="50" relative="1" as="geometry">
            <mxPoint x="81" y="-625" as="sourcePoint" />
            <mxPoint x="131" y="-675" as="targetPoint" />
          </mxGeometry>
        </mxCell>
        <mxCell id="44_cvx2aGd4Uje0POpSN-50" value="" style="endArrow=none;html=1;rounded=0;fontSize=12;exitX=1;exitY=0.3333333333333333;exitDx=0;exitDy=0;exitPerimeter=0;entryX=0;entryY=0.5;entryDx=0;entryDy=0;" edge="1" parent="1" source="44_cvx2aGd4Uje0POpSN-11" target="44_cvx2aGd4Uje0POpSN-36">
          <mxGeometry width="50" height="50" relative="1" as="geometry">
            <mxPoint x="-88" y="-386.5" as="sourcePoint" />
            <mxPoint x="313.5000000000032" y="-695" as="targetPoint" />
          </mxGeometry>
        </mxCell>
        <mxCell id="44_cvx2aGd4Uje0POpSN-52" value="" style="endArrow=none;html=1;rounded=0;fontSize=12;entryX=0;entryY=0.5;entryDx=0;entryDy=0;exitX=1;exitY=0.3333333333333333;exitDx=0;exitDy=0;exitPerimeter=0;" edge="1" parent="1" source="44_cvx2aGd4Uje0POpSN-11" target="44_cvx2aGd4Uje0POpSN-39">
          <mxGeometry width="50" height="50" relative="1" as="geometry">
            <mxPoint x="222" y="-229" as="sourcePoint" />
            <mxPoint x="272" y="-279" as="targetPoint" />
          </mxGeometry>
        </mxCell>
        <mxCell id="44_cvx2aGd4Uje0POpSN-54" value="" style="endArrow=none;html=1;rounded=0;fontSize=12;exitX=1;exitY=0.3333333333333333;exitDx=0;exitDy=0;exitPerimeter=0;entryX=0;entryY=0.5;entryDx=0;entryDy=0;" edge="1" parent="1" source="44_cvx2aGd4Uje0POpSN-11" target="44_cvx2aGd4Uje0POpSN-40">
          <mxGeometry width="50" height="50" relative="1" as="geometry">
            <mxPoint x="-88" y="-386.5" as="sourcePoint" />
            <mxPoint x="313.5" y="-270" as="targetPoint" />
          </mxGeometry>
        </mxCell>
        <mxCell id="44_cvx2aGd4Uje0POpSN-55" value="" style="endArrow=none;html=1;rounded=0;fontSize=12;exitX=1;exitY=0.5;exitDx=0;exitDy=0;entryX=0;entryY=0.3333333333333333;entryDx=0;entryDy=0;entryPerimeter=0;" edge="1" parent="1" source="44_cvx2aGd4Uje0POpSN-39" target="44_cvx2aGd4Uje0POpSN-38">
          <mxGeometry width="50" height="50" relative="1" as="geometry">
            <mxPoint x="512" y="-525" as="sourcePoint" />
            <mxPoint x="562" y="-575" as="targetPoint" />
          </mxGeometry>
        </mxCell>
        <mxCell id="44_cvx2aGd4Uje0POpSN-57" value="Bakiye Güncelle&lt;span style=&quot;color: rgba(0, 0, 0, 0); font-family: monospace; font-size: 0px; text-align: start;&quot;&gt;%3CmxGraphModel%3E%3Croot%3E%3CmxCell%20id%3D%220%22%2F%3E%3CmxCell%20id%3D%221%22%20parent%3D%220%22%2F%3E%3CmxCell%20id%3D%222%22%20value%3D%22Para%20Yat%C4%B1rma%22%20style%3D%22ellipse%3BwhiteSpace%3Dwrap%3Bhtml%3D1%3BfontSize%3D12%3B%22%20vertex%3D%221%22%20parent%3D%221%22%3E%3CmxGeometry%20x%3D%22303.5%22%20y%3D%22-632%22%20width%3D%22140%22%20height%3D%2270%22%20as%3D%22geometry%22%2F%3E%3C%2FmxCell%3E%3C%2Froot%3E%3C%2FmxGraphModel%3E&lt;/span&gt;" style="ellipse;whiteSpace=wrap;html=1;fontSize=12;" vertex="1" parent="1">
          <mxGeometry x="439.75" y="-648" width="140" height="70" as="geometry" />
        </mxCell>
        <mxCell id="44_cvx2aGd4Uje0POpSN-58" value="Bakiye Güncelle&lt;span style=&quot;color: rgba(0, 0, 0, 0); font-family: monospace; font-size: 0px; text-align: start;&quot;&gt;%3CmxGraphModel%3E%3Croot%3E%3CmxCell%20id%3D%220%22%2F%3E%3CmxCell%20id%3D%221%22%20parent%3D%220%22%2F%3E%3CmxCell%20id%3D%222%22%20value%3D%22Para%20Yat%C4%B1rma%22%20style%3D%22ellipse%3BwhiteSpace%3Dwrap%3Bhtml%3D1%3BfontSize%3D12%3B%22%20vertex%3D%221%22%20parent%3D%221%22%3E%3CmxGeometry%20x%3D%22303.5%22%20y%3D%22-632%22%20width%3D%22140%22%20height%3D%2270%22%20as%3D%22geometry%22%2F%3E%3C%2FmxCell%3E%3C%2Froot%3E%3C%2FmxGraphModel%3E&lt;/span&gt;" style="ellipse;whiteSpace=wrap;html=1;fontSize=12;" vertex="1" parent="1">
          <mxGeometry x="439.75" y="-756" width="140" height="70" as="geometry" />
        </mxCell>
        <mxCell id="44_cvx2aGd4Uje0POpSN-59" value="&amp;lt;&amp;lt;include&amp;gt;&amp;gt;" style="edgeStyle=none;html=1;endArrow=open;verticalAlign=bottom;dashed=1;labelBackgroundColor=none;rounded=0;fontSize=7;exitX=1;exitY=0.5;exitDx=0;exitDy=0;entryX=0;entryY=0.5;entryDx=0;entryDy=0;" edge="1" parent="1" source="44_cvx2aGd4Uje0POpSN-36" target="44_cvx2aGd4Uje0POpSN-57">
          <mxGeometry width="160" relative="1" as="geometry">
            <mxPoint x="400.2499999999991" y="-711" as="sourcePoint" />
            <mxPoint x="449.75000000000045" y="-711" as="targetPoint" />
          </mxGeometry>
        </mxCell>
        <mxCell id="44_cvx2aGd4Uje0POpSN-61" value="Kredi Kartı&lt;br&gt;Talebinde Bulun" style="ellipse;whiteSpace=wrap;html=1;fontSize=12;" vertex="1" parent="1">
          <mxGeometry x="250.25" y="39" width="140" height="70" as="geometry" />
        </mxCell>
        <mxCell id="44_cvx2aGd4Uje0POpSN-62" value="Talebin Onaylanması" style="ellipse;whiteSpace=wrap;html=1;fontSize=12;" vertex="1" parent="1">
          <mxGeometry x="523.75" y="172" width="140" height="70" as="geometry" />
        </mxCell>
        <mxCell id="44_cvx2aGd4Uje0POpSN-63" value="Kredi Kartı Limitinin Belirlenmesi" style="ellipse;whiteSpace=wrap;html=1;fontSize=12;" vertex="1" parent="1">
          <mxGeometry x="800.75" y="172" width="140" height="70" as="geometry" />
        </mxCell>
        <mxCell id="44_cvx2aGd4Uje0POpSN-64" value="Talebin Reddedilmesi" style="ellipse;whiteSpace=wrap;html=1;fontSize=12;" vertex="1" parent="1">
          <mxGeometry x="523.75" y="39" width="140" height="70" as="geometry" />
        </mxCell>
        <mxCell id="44_cvx2aGd4Uje0POpSN-66" value="" style="endArrow=none;html=1;rounded=0;fontSize=12;entryX=1;entryY=0.3333333333333333;entryDx=0;entryDy=0;entryPerimeter=0;exitX=0;exitY=0.5;exitDx=0;exitDy=0;" edge="1" parent="1" source="44_cvx2aGd4Uje0POpSN-61" target="44_cvx2aGd4Uje0POpSN-11">
          <mxGeometry width="50" height="50" relative="1" as="geometry">
            <mxPoint x="110" y="182" as="sourcePoint" />
            <mxPoint x="160" y="132" as="targetPoint" />
          </mxGeometry>
        </mxCell>
        <mxCell id="44_cvx2aGd4Uje0POpSN-67" value="&amp;lt;&amp;lt;extend&amp;gt;&amp;gt;" style="edgeStyle=none;html=1;startArrow=open;endArrow=none;startSize=12;verticalAlign=bottom;dashed=1;labelBackgroundColor=none;rounded=0;fontSize=12;entryX=1;entryY=0.5;entryDx=0;entryDy=0;exitX=0;exitY=0.5;exitDx=0;exitDy=0;" edge="1" parent="1" source="44_cvx2aGd4Uje0POpSN-62" target="44_cvx2aGd4Uje0POpSN-61">
          <mxGeometry width="160" relative="1" as="geometry">
            <mxPoint x="241.75" y="-90" as="sourcePoint" />
            <mxPoint x="401.75" y="-90" as="targetPoint" />
          </mxGeometry>
        </mxCell>
        <mxCell id="44_cvx2aGd4Uje0POpSN-68" value="&amp;lt;&amp;lt;extend&amp;gt;&amp;gt;" style="edgeStyle=none;html=1;startArrow=open;endArrow=none;startSize=12;verticalAlign=bottom;dashed=1;labelBackgroundColor=none;rounded=0;fontSize=12;entryX=1;entryY=0.5;entryDx=0;entryDy=0;exitX=0;exitY=0.5;exitDx=0;exitDy=0;" edge="1" parent="1" source="44_cvx2aGd4Uje0POpSN-64" target="44_cvx2aGd4Uje0POpSN-61">
          <mxGeometry width="160" relative="1" as="geometry">
            <mxPoint x="241.75" y="-90" as="sourcePoint" />
            <mxPoint x="401.75" y="-90" as="targetPoint" />
          </mxGeometry>
        </mxCell>
        <mxCell id="44_cvx2aGd4Uje0POpSN-69" value="&amp;lt;&amp;lt;include&amp;gt;&amp;gt;" style="edgeStyle=none;html=1;endArrow=open;verticalAlign=bottom;dashed=1;labelBackgroundColor=none;rounded=0;fontSize=12;entryX=0;entryY=0.5;entryDx=0;entryDy=0;exitX=1;exitY=0.5;exitDx=0;exitDy=0;" edge="1" parent="1" source="44_cvx2aGd4Uje0POpSN-62" target="44_cvx2aGd4Uje0POpSN-63">
          <mxGeometry width="160" relative="1" as="geometry">
            <mxPoint x="238.75" y="43" as="sourcePoint" />
            <mxPoint x="398.75" y="43" as="targetPoint" />
          </mxGeometry>
        </mxCell>
        <mxCell id="44_cvx2aGd4Uje0POpSN-70" value="" style="edgeStyle=none;html=1;endArrow=none;verticalAlign=bottom;rounded=0;fontSize=12;entryX=0;entryY=0.3333333333333333;entryDx=0;entryDy=0;entryPerimeter=0;exitX=0.5;exitY=0;exitDx=0;exitDy=0;" edge="1" parent="1" source="44_cvx2aGd4Uje0POpSN-62" target="44_cvx2aGd4Uje0POpSN-38">
          <mxGeometry width="160" relative="1" as="geometry">
            <mxPoint x="1011" y="289" as="sourcePoint" />
            <mxPoint x="1171" y="289" as="targetPoint" />
          </mxGeometry>
        </mxCell>
        <mxCell id="44_cvx2aGd4Uje0POpSN-71" value="" style="edgeStyle=none;html=1;endArrow=none;verticalAlign=bottom;rounded=0;fontSize=12;exitX=0.5;exitY=0;exitDx=0;exitDy=0;entryX=0;entryY=0.3333333333333333;entryDx=0;entryDy=0;entryPerimeter=0;" edge="1" parent="1" source="44_cvx2aGd4Uje0POpSN-64" target="44_cvx2aGd4Uje0POpSN-38">
          <mxGeometry width="160" relative="1" as="geometry">
            <mxPoint x="1011" y="289" as="sourcePoint" />
            <mxPoint x="1171" y="289" as="targetPoint" />
          </mxGeometry>
        </mxCell>
      </root>
    </mxGraphModel>
  </diagram>
</mxfile>
